<svg xmlns="http://www.w3.org/2000/svg" viewBox="0 0 128 128">
  <rect width="128" height="128" fill="#efe0c8"/>
  <path d="M20 128 Q20 94 64 90 Q108 94 108 128 Z" fill="#a34a3c"/>
  <rect x="54" y="76" width="20" height="20" rx="7" fill="#d29a6e"/>
  <ellipse cx="64" cy="55" rx="27" ry="30" fill="#d29a6e"/>
  <path d="M64 24 Q34 26 34 58 Q34 68 38 74 Q40 66 40 58 Q40 38 64 35 Q88 38 88 58 Q88 66 90 74 Q94 68 94 58 Q94 26 64 24 Z" fill="#241a12"/>
  <circle cx="90" cy="80" r="7" fill="#241a12"/>
  <circle cx="37" cy="58" r="4" fill="#d29a6e"/>
  <circle cx="91" cy="58" r="4" fill="#d29a6e"/>
  <circle cx="38" cy="64" r="2.2" fill="#d4a017"/>
  <circle cx="90" cy="64" r="2.2" fill="#d4a017"/>
  <path d="M48 47 Q54 44 60 47" stroke="#241a12" stroke-width="2" fill="none" stroke-linecap="round"/>
  <path d="M68 47 Q74 44 80 47" stroke="#241a12" stroke-width="2" fill="none" stroke-linecap="round"/>
  <ellipse cx="54" cy="54" rx="2.6" ry="3.2" fill="#2a1c14"/>
  <ellipse cx="74" cy="54" rx="2.6" ry="3.2" fill="#2a1c14"/>
  <path d="M64 56 L62 66 Q64 68 66 66" stroke="#a56b3e" stroke-width="1.6" fill="none" stroke-linecap="round"/>
  <path d="M56 74 Q64 79 72 74" stroke="#7a3b28" stroke-width="2.2" fill="none" stroke-linecap="round"/>
</svg>
